<?xml version="1.0" encoding="utf-8"?>
<!-- Generator: Adobe Illustrator 22.0.1, SVG Export Plug-In . SVG Version: 6.00 Build 0)  -->
<svg version="1.1" id="Layer_1" xmlns="http://www.w3.org/2000/svg" xmlns:xlink="http://www.w3.org/1999/xlink" x="0px" y="0px"
	 viewBox="0 0 1366 768" style="enable-background:new 0 0 1366 768;" xml:space="preserve">
<style type="text/css">
	.st0{opacity:0.24;fill:#68E1FD;enable-background:new    ;}
	.st1{fill:#68E1FD;}
	.st2{opacity:0.37;fill:url(#SVGID_1_);enable-background:new    ;}
	.st3{fill:url(#SVGID_2_);}
	.st4{opacity:0.37;fill:url(#SVGID_3_);enable-background:new    ;}
	.st5{fill:#FFFFFF;}
	.st6{fill:url(#SVGID_4_);}
	.st7{fill:url(#SVGID_5_);}
	.st8{fill:url(#SVGID_6_);}
	.st9{fill:url(#SVGID_7_);}
	.st10{fill:url(#SVGID_8_);}
	.st11{opacity:0.37;fill:url(#SVGID_9_);enable-background:new    ;}
	.st12{opacity:0.37;fill:url(#SVGID_10_);enable-background:new    ;}
	.st13{fill:url(#SVGID_11_);}
	.st14{fill:url(#SVGID_12_);}
	.st15{opacity:0.37;fill:url(#SVGID_13_);enable-background:new    ;}
	.st16{opacity:0.37;fill:url(#SVGID_14_);enable-background:new    ;}
	.st17{opacity:0.37;fill:url(#SVGID_15_);enable-background:new    ;}
	.st18{opacity:0.37;fill:url(#SVGID_16_);enable-background:new    ;}
	.st19{opacity:0.37;fill:url(#SVGID_17_);enable-background:new    ;}
	.st20{fill:#F8C244;}
	.st21{fill:#E8A825;}
	.st22{opacity:0.37;fill:url(#SVGID_18_);enable-background:new    ;}
	.st23{opacity:0.37;fill:url(#SVGID_19_);enable-background:new    ;}
	.st24{opacity:0.37;fill:url(#SVGID_20_);enable-background:new    ;}
	.st25{opacity:0.37;fill:url(#SVGID_21_);enable-background:new    ;}
	.st26{opacity:0.37;fill:url(#SVGID_22_);enable-background:new    ;}
	.st27{opacity:0.37;fill:url(#SVGID_23_);enable-background:new    ;}
	.st28{opacity:0.37;fill:url(#SVGID_24_);enable-background:new    ;}
	.st29{opacity:0.26;fill:url(#SVGID_25_);enable-background:new    ;}
	.st30{opacity:0.26;fill:url(#SVGID_26_);enable-background:new    ;}
	.st31{fill:#FDB386;}
	.st32{fill:url(#SVGID_27_);}
	.st33{fill:url(#SVGID_28_);}
	.st34{fill:url(#SVGID_29_);}
	.st35{fill:url(#SVGID_30_);}
	.st36{opacity:0.13;fill:#68E1FD;enable-background:new    ;}
	.st37{fill:url(#SVGID_31_);}
	.st38{fill:url(#SVGID_32_);}
	.st39{fill:url(#SVGID_33_);}
	.st40{fill:url(#SVGID_34_);}
	.st41{fill:url(#SVGID_35_);}
	.st42{fill:url(#SVGID_36_);}
	.st43{fill:url(#SVGID_37_);}
	.st44{fill:url(#SVGID_38_);}
	.st45{fill:url(#SVGID_39_);}
	.st46{fill:url(#SVGID_40_);}
	.st47{fill:url(#SVGID_41_);}
</style>
<g>
	<path class="st0" d="M436.2,50.9c-11.1-9-22.3-16-31.7-17.2l-56.1-7.1c-48.1-6.1-98-12.1-144.3,2.6C147.7,47.2,102.7,97.3,91,155.4
		c-3.5,17.5-4.3,35.5-9.8,52.5C73,233.3,54.9,254,39.7,276c-15.4,22.3-28.4,47.2-31.2,74.2s6.3,56.3,28,72.6s51.1,16.8,78.2,16.6
		c108.6-0.6,220.6,2.5,328.6-7c25.2-2.2,51.9-8.8,68.7-27.6c21.5-24.1,20.5-61.1,10.4-91.7s-27.8-58.4-36.6-89.4
		c-6.5-23-8.1-47.2-4.4-70.8c3-19.6,11.3-46-4.5-62.4C467.3,80.4,451.9,63.7,436.2,50.9z"/>
	<polygon class="st1" points="371.3,177.1 344.3,169.8 342.9,174.7 377.1,197 	"/>
	
		<linearGradient id="SVGID_1_" gradientUnits="userSpaceOnUse" x1="343.42" y1="586.235" x2="377.65" y2="586.235" gradientTransform="matrix(1 0 0 -1 0 770)">
		<stop  offset="0" style="stop-color:#010101;stop-opacity:0"/>
		<stop  offset="0.95" style="stop-color:#010101"/>
	</linearGradient>
	<polygon class="st2" points="371.8,177.5 344.9,170.2 343.4,175 377.6,197.4 	"/>
	
		<linearGradient id="SVGID_2_" gradientUnits="userSpaceOnUse" x1="422.4105" y1="609.1345" x2="453.5697" y2="609.1345" gradientTransform="matrix(1 0 0 -1 -8.73 749.02)">
		<stop  offset="0" style="stop-color:#E4C5D5"/>
		<stop  offset="0.42" style="stop-color:#E9D3CF"/>
		<stop  offset="1" style="stop-color:#EFE8CA"/>
	</linearGradient>
	<path class="st3" d="M433.6,149.4c-1.6,1.3-3.1,2.8-5.1,3.2c-2.9,0.6-5.6-1.4-7.8-3.5c-2.9-2.7-5.6-5.9-6.7-9.8s0-8.5,3.3-10.7
		c2.2-1.4,5-1.6,7.6-1.6c4.6,0,9.2,0.4,13.7,1.1c1.1,0.1,2.1,0.4,3.1,0.9c3.4,1.9,3.7,6.7,2.3,9.9
		C441.9,144.1,437.8,146.1,433.6,149.4z"/>
	<path class="st1" d="M395.7,135.4c0,0,4.2-9.5,14.3-7.5c10.1,1.9,20.5,20.8,16.6,30.6c-2.4,6-5.3,11.7-8.7,17.1l-3.6-2.5
		c0,0,8.3-9.1,8.3-16.8s-12.4-19.4-12.8-19.8s-6.7-5-11.2,2.2S395.7,135.4,395.7,135.4z"/>
	
		<linearGradient id="SVGID_3_" gradientUnits="userSpaceOnUse" x1="410.0201" y1="590.3298" x2="434.7801" y2="609.4298" gradientTransform="matrix(1 0 0 -1 -8.73 749.02)">
		<stop  offset="0" style="stop-color:#010101;stop-opacity:0"/>
		<stop  offset="0.95" style="stop-color:#010101"/>
	</linearGradient>
	<path class="st4" d="M395.7,135.4c0,0,4.2-9.5,14.3-7.5c10.1,1.9,20.5,20.8,16.6,30.6c-2.4,6-5.3,11.7-8.7,17.1l-3.6-2.5
		c0,0,8.3-9.1,8.3-16.8s-12.4-19.4-12.8-19.8s-6.7-5-11.2,2.2S395.7,135.4,395.7,135.4z"/>
	<path class="st1" d="M441.1,112.8c-1.3,0.5-3,1.3-3.1,2.7c0,0.5,0.1,1,0.3,1.5c0.9,1.8,1.9,3.5,3.2,5.1c3.4,4.9,5.7,10.5,8.5,15.8
		c0.1,0.3,0.4,0.6,0.6,0.8c0.3,0.1,0.7,0.2,1,0.1c3-0.4,5.7-2.2,8.3-3.8c6.8-4.3,13.7-8.4,20.8-12.1c1.9-0.8,3.6-2.1,5-3.7
		c1.5-2.1,1.7-4.8,1.7-7.3c0.1-3.7-0.5-7.4-1.8-10.8c-1.3-3.5-3.6-6.4-6.7-8.4c-2.3-1.4-5-4.2-7.7-2.8s-5,4-7.2,5.9
		c-4.6,4.2-9.1,8.6-14.1,12.2C447.2,109.8,444.2,111.5,441.1,112.8z"/>
	<path class="st5" d="M435.4,119c-0.4,0.2-0.7,0.5-0.8,0.8c-0.1,0.3,0,0.6,0.1,0.9c0.6,1.5,1.8,2.6,2.7,3.9c0.7,1.1,1.3,2.2,1.7,3.3
		c1.6,3.5,3.2,7,5,10.4c0.1,0.5,0.6,0.7,1.1,0.6c0.2,0,0.3-0.1,0.4-0.3c1.5-0.8,2.8-1.9,4-3.1c0.1-0.1,0.2-0.3,0.3-0.4
		c0-0.2,0-0.4-0.1-0.6c-0.5-1.5-1.2-2.9-2-4.2c-1.7-3-3.6-5.9-5.6-8.7c-0.9-1.2-1.8-3.1-3-4C437.9,116.8,436.3,118.5,435.4,119z"/>
	
		<linearGradient id="SVGID_4_" gradientUnits="userSpaceOnUse" x1="420.0887" y1="620.3" x2="420.0887" y2="609.82" gradientTransform="matrix(1 0 0 -1 -8.73 749.02)">
		<stop  offset="0" style="stop-color:#E4C5D5"/>
		<stop  offset="0.42" style="stop-color:#E9D3CF"/>
		<stop  offset="1" style="stop-color:#EFE8CA"/>
	</linearGradient>
	<path class="st6" d="M404.9,141.9c-0.9-0.6-1.7-1.4-2.1-2.4c-0.4-1-0.3-2.1,0.2-3.1c0.4-0.6,0.9-1.1,1.5-1.5
		c1.7-1.3,3.4-2.4,5.2-3.4c1-0.5,2-1,3.1-1.3c1-0.2,2.1-0.3,3.1-0.3c0.9-0.1,1.9,0,2.7,0.4c1.2,0.6,1.7,2,1.3,3.3
		c-0.6,1.1-1.4,2-2.5,2.6c-2.4,1.7-4.4,3.9-6.7,5.6C409,143.1,406.7,143.1,404.9,141.9z"/>
	
		<linearGradient id="SVGID_5_" gradientUnits="userSpaceOnUse" x1="423.062" y1="613.9103" x2="424.192" y2="605.0903" gradientTransform="matrix(1 0 0 -1 -8.73 749.02)">
		<stop  offset="0" style="stop-color:#E4C5D5"/>
		<stop  offset="0.42" style="stop-color:#E9D3CF"/>
		<stop  offset="1" style="stop-color:#EFE8CA"/>
	</linearGradient>
	<path class="st7" d="M408.7,148c-0.9-0.6-1.6-1.4-2.1-2.4c-0.4-1-0.3-2.1,0.2-3.1c0.4-0.6,0.9-1.1,1.5-1.5c1.7-1.3,3.4-2.4,5.2-3.4
		c1-0.5,2-1,3-1.3c1-0.2,2.1-0.3,3.1-0.3c0.9-0.1,1.9,0,2.7,0.4c1.2,0.6,1.7,2,1.3,3.3c-0.5,1.1-1.4,2.1-2.5,2.7
		c-2.4,1.7-4.4,3.9-6.7,5.6C412.8,149.3,410.5,149.3,408.7,148z"/>
	
		<linearGradient id="SVGID_6_" gradientUnits="userSpaceOnUse" x1="427.487" y1="608.5696" x2="428.6169" y2="599.7496" gradientTransform="matrix(1 0 0 -1 -8.73 749.02)">
		<stop  offset="0" style="stop-color:#E4C5D5"/>
		<stop  offset="0.42" style="stop-color:#E9D3CF"/>
		<stop  offset="1" style="stop-color:#EFE8CA"/>
	</linearGradient>
	<path class="st8" d="M413.2,153.4c-0.9-0.6-1.6-1.4-2.1-2.4c-0.4-1-0.3-2.1,0.2-3.1c0.4-0.6,0.9-1.1,1.5-1.5
		c1.7-1.3,3.4-2.4,5.2-3.4c1-0.5,2-1,3-1.3c1-0.2,2.1-0.3,3.1-0.3c0.9-0.1,1.9,0,2.7,0.4c1.2,0.6,1.7,2,1.3,3.3
		c-0.6,1.1-1.4,2-2.5,2.6c-2.4,1.7-4.4,3.9-6.8,5.6C417.2,154.6,414.9,154.6,413.2,153.4z"/>
	
		<linearGradient id="SVGID_7_" gradientUnits="userSpaceOnUse" x1="432.5635" y1="603.6466" x2="433.6935" y2="594.8266" gradientTransform="matrix(1 0 0 -1 -8.73 749.02)">
		<stop  offset="0" style="stop-color:#E4C5D5"/>
		<stop  offset="0.42" style="stop-color:#E9D3CF"/>
		<stop  offset="1" style="stop-color:#EFE8CA"/>
	</linearGradient>
	<path class="st9" d="M418.3,158.3c-0.9-0.6-1.6-1.4-2.1-2.4c-0.4-1-0.3-2.1,0.2-3.1c0.4-0.6,0.9-1.1,1.5-1.5
		c1.7-1.3,3.4-2.4,5.2-3.4c0.9-0.5,2-1,3-1.3c1-0.2,2.1-0.3,3.1-0.3c0.9-0.1,1.9,0,2.7,0.4c1.2,0.6,1.7,2,1.3,3.3
		c-0.6,1.1-1.5,2-2.5,2.6c-2.4,1.7-4.4,3.9-6.7,5.6C422.3,159.5,420,159.5,418.3,158.3z"/>
	
		<linearGradient id="SVGID_8_" gradientUnits="userSpaceOnUse" x1="455.2152" y1="626.2811" x2="423.0052" y2="617.381" gradientTransform="matrix(1 0 0 -1 -8.73 749.02)">
		<stop  offset="0" style="stop-color:#E4C5D5"/>
		<stop  offset="0.42" style="stop-color:#E9D3CF"/>
		<stop  offset="1" style="stop-color:#EFE8CA"/>
	</linearGradient>
	<path class="st10" d="M420.4,119.6c-0.7,0-1.4,0-2.1,0.2c-1,0.4-1.9,1.1-2.6,2l-5.7,6c-0.6,0.6-1.1,1.3-1.5,2
		c-0.4,0.9-0.6,1.9-0.6,2.8c-0.2,2.6-0.3,5.1-0.3,7.7c0,0.4,0.1,0.7,0.3,1c0.3,0.3,0.7,0.4,1.1,0.3c2.6-0.3,4.8-2.2,5.5-4.7
		c0.2-0.8,0.4-1.6,0.8-2.4c0.7-1,1.7-1.7,2.8-2.1c0.2-0.1,0.4-0.2,0.6-0.2c0.3,0,0.6,0.1,0.8,0.3c1.7,1,3.4,2,5.1,2.9
		c2.1,1.2,4.5,1.8,7,1.9c2.8-0.2,5.5-1.3,7.7-3c1.5-1.3,2.3-3.1,2.3-5.1c-0.1-2.6-2.1-4.7-3.9-6.6c-0.9-0.8-1.6-2-2.8-2.1
		c-1.6-0.1-3.2,0-4.8-0.1C426.8,120.1,423.6,119.6,420.4,119.6z"/>
	<polygon class="st1" points="356.5,144.6 360.3,148.7 375.9,199.2 376.4,203.6 425.2,182.7 420.3,177.8 396,132 396.5,128.8 	"/>
	<path class="st1" d="M345.3,169.6c0,6.2-5.1,11.3-11.3,11.3c0,0,0,0,0,0c-0.7,0-1.4-0.1-2.1-0.2l4.9-22
		C341.8,159.9,345.3,164.4,345.3,169.6z"/>
	
		<linearGradient id="SVGID_9_" gradientUnits="userSpaceOnUse" x1="400.3029" y1="585.6072" x2="462.7829" y2="646.7972" gradientTransform="matrix(1 0 0 -1 -8.73 749.02)">
		<stop  offset="0" style="stop-color:#010101;stop-opacity:0"/>
		<stop  offset="0.95" style="stop-color:#010101"/>
	</linearGradient>
	<path class="st11" d="M366.2,145.7l29.7-13.6l24.3,45.7l-8.3,3.1l-12.7-23c-5.6-10.3-17.4-15.6-28.8-13.1L366.2,145.7z"/>
	
		<ellipse transform="matrix(0.2021 -0.9794 0.9794 0.2021 100.6008 462.6508)" class="st1" cx="334.2" cy="169.6" rx="11.3" ry="3.2"/>
	
		<linearGradient id="SVGID_10_" gradientUnits="userSpaceOnUse" x1="339.1172" y1="579.4335" x2="346.803" y2="579.4335" gradientTransform="matrix(1 0 0 -1 -8.7233 749.0186)">
		<stop  offset="0" style="stop-color:#010101;stop-opacity:0"/>
		<stop  offset="0.95" style="stop-color:#010101"/>
	</linearGradient>
	<path class="st12" d="M331.1,168.9c1.3-6.1,3.7-10.8,5.4-10.4c1.7,0.4,2.1,5.6,0.8,11.7c-1.3,6.1-3.7,10.8-5.4,10.4
		C330.2,180.3,329.9,175,331.1,168.9z"/>
	
		<linearGradient id="SVGID_11_" gradientUnits="userSpaceOnUse" x1="375.6828" y1="642.2996" x2="362.0928" y2="549.7996" gradientTransform="matrix(1 0 0 -1 0 770)">
		<stop  offset="0" style="stop-color:#010101;stop-opacity:0"/>
		<stop  offset="0.95" style="stop-color:#010101"/>
	</linearGradient>
	<polygon class="st13" points="360.3,148.7 390.9,134.8 392,130.9 356.5,144.6 	"/>
	<path class="st1" d="M329.9,163.6L329.9,163.6h-0.6c-0.3,0-0.6-0.3-0.5-0.6c0,0,0,0,0,0c0-0.3,0.3-0.5,0.6-0.5c0,0,0,0,0.1,0h0.6
		c0.3,0.1,0.5,0.4,0.5,0.7C330.4,163.4,330.2,163.6,329.9,163.6L329.9,163.6z"/>
	<path class="st1" d="M267.7,238.2L267.7,238.2c-0.3,0-0.6-0.3-0.6-0.6v-1.1c0-0.3,0.3-0.6,0.6-0.6l0,0c0.3,0,0.6,0.3,0.6,0.6
		c0,0,0,0,0,0v1.1C268.3,238,268,238.2,267.7,238.2z M268.2,229.1L268.2,229.1c-0.4,0-0.6-0.3-0.6-0.6c0,0,0,0,0,0l0.1-1.1
		c0-0.3,0.3-0.5,0.6-0.5c0,0,0,0,0,0c0.3,0,0.5,0.3,0.5,0.6c0,0,0,0,0,0l-0.1,1.1C268.8,228.9,268.6,229.1,268.2,229.1L268.2,229.1z
		 M269.3,220.1L269.3,220.1c-0.4-0.1-0.6-0.3-0.5-0.7l0.2-1.1c0-0.3,0.3-0.5,0.6-0.5c0,0,0,0,0,0c0.3,0.1,0.5,0.4,0.5,0.7l-0.2,1.1
		C269.9,219.9,269.6,220.1,269.3,220.1L269.3,220.1z M271.1,211.2H271c-0.3-0.1-0.5-0.4-0.4-0.7c0.1-0.4,0.2-0.8,0.3-1.1
		c0.1-0.3,0.4-0.5,0.7-0.4c0.3,0.1,0.5,0.4,0.4,0.7c-0.1,0.4-0.2,0.7-0.3,1.1C271.6,211,271.4,211.1,271.1,211.2L271.1,211.2z
		 M273.7,202.5c-0.1,0-0.1,0-0.2,0c-0.3-0.1-0.5-0.4-0.4-0.7l0.4-1.1c0.1-0.3,0.4-0.5,0.7-0.3c0,0,0,0,0,0c0.3,0.1,0.4,0.4,0.3,0.7
		c0,0,0,0,0,0l-0.4,1C274.2,202.3,274,202.4,273.7,202.5L273.7,202.5z M277.4,194.1c-0.1,0-0.2,0-0.3-0.1c-0.3-0.1-0.4-0.5-0.2-0.8
		c0,0,0,0,0,0l0.5-1c0.2-0.2,0.6-0.3,0.8-0.1c0.2,0.1,0.3,0.4,0.2,0.6l-0.5,1C277.7,194,277.6,194.1,277.4,194.1L277.4,194.1z
		 M282.1,186.3c-0.1,0-0.2,0-0.3-0.1c-0.3-0.2-0.3-0.5-0.1-0.8l0.7-0.9c0.2-0.2,0.6-0.3,0.8-0.1c0.2,0.2,0.3,0.5,0.1,0.8l-0.7,0.9
		C282.4,186.2,282.2,186.3,282.1,186.3L282.1,186.3z M287.9,179.3c-0.3,0-0.6-0.2-0.6-0.6c0-0.2,0.1-0.3,0.2-0.4
		c0.3-0.3,0.5-0.5,0.8-0.8c0.2-0.2,0.6-0.2,0.8,0c0.2,0.2,0.2,0.6,0,0.8l-0.8,0.8C288.2,179.2,288.1,179.3,287.9,179.3L287.9,179.3z
		 M294.9,173.4c-0.2,0-0.4-0.1-0.5-0.3c-0.2-0.3-0.1-0.6,0.1-0.8l0.9-0.6c0.3-0.2,0.6-0.1,0.8,0.1c0.2,0.3,0.1,0.6-0.2,0.8l-0.9,0.6
		C295.1,173.4,295,173.4,294.9,173.4L294.9,173.4z M302.8,168.9c-0.3,0-0.6-0.3-0.6-0.6c0-0.2,0.1-0.4,0.3-0.5l1-0.5
		c0.3-0.2,0.6,0,0.8,0.2c0.2,0.3,0,0.6-0.2,0.8c0,0-0.1,0-0.1,0l-1,0.5C303,168.8,302.9,168.9,302.8,168.9L302.8,168.9z
		 M311.3,165.7c-0.3,0-0.5-0.2-0.5-0.4c-0.1-0.3,0.1-0.6,0.4-0.7c0,0,0,0,0,0c0.4-0.1,0.7-0.2,1.1-0.3c0.3-0.1,0.6,0.1,0.7,0.4
		c0,0,0,0,0,0c0.1,0.3-0.1,0.6-0.4,0.7l-1.1,0.3C311.4,165.7,311.3,165.7,311.3,165.7L311.3,165.7z M320.3,163.9
		c-0.3,0-0.6-0.3-0.5-0.6c0-0.3,0.2-0.5,0.5-0.5l1.1-0.1c0.3,0,0.6,0.2,0.6,0.5c0,0.3-0.2,0.6-0.5,0.6L320.3,163.9L320.3,163.9z"/>
	<path class="st1" d="M267.7,246.9c-0.3,0-0.6-0.2-0.6-0.6v-0.6c0-0.3,0.3-0.6,0.6-0.6l0,0c0.3,0,0.6,0.2,0.6,0.6v0.6
		C268.3,246.7,268.1,246.9,267.7,246.9C267.8,246.9,267.8,246.9,267.7,246.9L267.7,246.9z"/>
	<path class="st1" d="M331.1,169.5c0,0,0.1,0-0.6,0c-0.3,0-0.6-0.3-0.6-0.6c0-0.3,0.3-0.5,0.6-0.6c0.4,0,0.6,0,0.6,0
		c0.3,0,0.6,0.3,0.5,0.6c0,0,0,0,0,0C331.7,169.3,331.5,169.5,331.1,169.5z"/>
	<path class="st1" d="M280.8,236.8L280.8,236.8c-0.3,0-0.6-0.3-0.6-0.6c0,0,0,0,0,0V235c0-0.3,0.3-0.5,0.6-0.5c0,0,0,0,0.1,0
		c0.3,0,0.6,0.3,0.5,0.6l-0.1,1.1C281.3,236.5,281.1,236.7,280.8,236.8z M281.6,227.6L281.6,227.6c-0.4,0-0.6-0.3-0.6-0.6
		c0,0,0,0,0,0l0.1-1.2c0.1-0.3,0.4-0.5,0.7-0.4c0.3,0.1,0.4,0.3,0.4,0.6l-0.1,1.1C282.2,227.3,282,227.6,281.6,227.6
		C281.7,227.6,281.7,227.6,281.6,227.6L281.6,227.6z M283.1,218.4H283c-0.3-0.1-0.5-0.4-0.5-0.7c0,0,0,0,0,0l0.2-1.1
		c0.1-0.3,0.3-0.5,0.6-0.5c0,0,0,0,0,0c0.3,0.1,0.5,0.4,0.5,0.7l-0.2,1.1C283.6,218.2,283.4,218.4,283.1,218.4L283.1,218.4z
		 M285.4,209.4c-0.1,0-0.1,0-0.2,0c-0.3-0.1-0.5-0.4-0.4-0.7l0.4-1.1c0.1-0.3,0.4-0.5,0.7-0.4c0,0,0,0,0,0c0.3,0.1,0.5,0.4,0.4,0.7
		c0,0,0,0,0,0l-0.3,1.1C285.8,209.3,285.6,209.5,285.4,209.4L285.4,209.4z M288.5,200.7c-0.1,0-0.2,0-0.2,0
		c-0.3-0.1-0.4-0.4-0.3-0.7c0,0,0,0,0,0l0.5-1.1c0.1-0.3,0.5-0.4,0.7-0.3c0,0,0,0,0,0c0.3,0.1,0.4,0.5,0.3,0.8l-0.5,1
		C289,200.6,288.8,200.8,288.5,200.7L288.5,200.7z M292.8,192.5c-0.1,0-0.2,0-0.3-0.1c-0.3-0.2-0.4-0.5-0.2-0.8c0,0,0,0,0,0
		c0.2-0.3,0.4-0.7,0.6-1c0.2-0.3,0.5-0.4,0.8-0.2c0,0,0,0,0,0c0.3,0.2,0.4,0.5,0.2,0.8c-0.2,0.3-0.4,0.6-0.6,1
		C293.2,192.4,293,192.6,292.8,192.5L292.8,192.5z M298.2,185.1c-0.1,0-0.3,0-0.4-0.1c-0.2-0.2-0.3-0.6-0.1-0.8c0,0,0,0,0,0l0.8-0.9
		c0.2-0.2,0.6-0.2,0.8,0c0.2,0.2,0.2,0.6,0,0.8c0,0,0,0,0,0c-0.3,0.3-0.5,0.6-0.8,0.9C298.5,185,298.4,185.1,298.2,185.1
		L298.2,185.1z M304.9,178.7c-0.2,0-0.4-0.1-0.5-0.2c-0.2-0.3-0.2-0.6,0.1-0.8c0,0,0,0,0,0l0.9-0.7c0.3-0.2,0.6-0.1,0.8,0.1
		c0.2,0.3,0.1,0.6-0.1,0.8c0,0,0,0,0,0l-0.9,0.7C305.2,178.7,305.1,178.8,304.9,178.7L304.9,178.7z M312.7,173.8
		c-0.3,0-0.6-0.2-0.6-0.6c0-0.2,0.1-0.4,0.3-0.5l1.1-0.5c0.3-0.1,0.6,0,0.8,0.3c0.1,0.3,0,0.6-0.3,0.8l0,0l-1,0.5
		C313,173.8,312.9,173.9,312.7,173.8L312.7,173.8z M321.4,170.7c-0.3,0-0.6-0.2-0.6-0.5c0-0.3,0.2-0.6,0.5-0.6l1.1-0.3
		c0.3-0.1,0.6,0.1,0.7,0.4c0,0,0,0,0,0c0.1,0.3-0.1,0.6-0.4,0.7c0,0,0,0,0,0l-1.1,0.3L321.4,170.7z"/>
	<path class="st1" d="M280.5,245.6L280.5,245.6c-0.3,0-0.6-0.3-0.6-0.6c0,0,0,0,0,0v-0.6c0-0.3,0.3-0.6,0.6-0.6l0,0
		c0.3,0,0.6,0.3,0.6,0.6c0,0,0,0,0,0v0.6C281.1,245.3,280.8,245.6,280.5,245.6z"/>
	<path class="st1" d="M331.1,178.2h-0.5c-0.3,0-0.5-0.2-0.5-0.5s0.2-0.5,0.5-0.5l0,0h0.5c0.3,0,0.5,0.2,0.5,0.5
		S331.4,178.2,331.1,178.2L331.1,178.2z"/>
	<path class="st1" d="M294.3,246.9L294.3,246.9c-0.3,0-0.5-0.2-0.5-0.5v-1c0-0.2,0.2-0.5,0.4-0.5c0,0,0.1,0,0.1,0
		c0.3,0,0.5,0.2,0.5,0.5c0,0,0,0,0,0v1C294.8,246.7,294.5,246.9,294.3,246.9z M294.7,239.2L294.7,239.2c-0.3,0-0.5-0.3-0.5-0.5
		c0,0,0,0,0,0l0.1-1c0-0.3,0.2-0.5,0.5-0.5c0,0,0,0,0.1,0c0.3,0,0.5,0.3,0.5,0.5c0,0,0,0,0,0l-0.1,1
		C295.2,239,295,239.2,294.7,239.2L294.7,239.2z M295.4,231.5L295.4,231.5c-0.3,0-0.5-0.3-0.5-0.5c0,0,0,0,0,0l0.1-1
		c0-0.3,0.3-0.5,0.6-0.4s0.5,0.3,0.4,0.6l0,0l-0.1,1C295.9,231.3,295.7,231.5,295.4,231.5L295.4,231.5z M296.5,223.9L296.5,223.9
		c-0.4,0-0.5-0.3-0.5-0.6c0,0,0,0,0,0l0.2-1c0-0.3,0.3-0.4,0.6-0.4c0,0,0,0,0,0c0.3,0.1,0.5,0.3,0.4,0.6l-0.2,0.9
		C297,223.7,296.8,223.9,296.5,223.9L296.5,223.9z M298.1,216.4h-0.1c-0.3-0.1-0.4-0.3-0.4-0.6c0,0,0,0,0,0l0.2-0.9
		c0.1-0.3,0.3-0.4,0.6-0.4c0.3,0.1,0.4,0.3,0.4,0.6c0,0,0,0,0,0l-0.2,0.9C298.5,216.2,298.3,216.4,298.1,216.4L298.1,216.4z
		 M300.1,209c0,0-0.1,0-0.1,0c-0.3-0.1-0.4-0.4-0.3-0.6c0,0,0,0,0,0l0.3-0.9c0.1-0.3,0.4-0.4,0.6-0.3c0,0,0,0,0,0
		c0.3,0.1,0.4,0.4,0.3,0.6c-0.1,0.3-0.2,0.6-0.3,0.9C300.5,208.8,300.3,209,300.1,209L300.1,209z M302.8,201.8c-0.1,0-0.1,0-0.2-0.1
		c-0.2-0.1-0.4-0.4-0.3-0.6c0,0,0,0,0,0l0.4-0.9c0.1-0.2,0.4-0.3,0.7-0.2c0.2,0.1,0.3,0.4,0.2,0.6l-0.4,0.9
		C303.2,201.6,303,201.8,302.8,201.8L302.8,201.8z M306.3,194.9c-0.1,0-0.2,0-0.3-0.1c-0.2-0.1-0.3-0.4-0.2-0.7l0.5-0.8
		c0.1-0.2,0.5-0.3,0.7-0.2s0.3,0.5,0.2,0.7c-0.2,0.3-0.3,0.5-0.5,0.8C306.7,194.8,306.5,194.9,306.3,194.9L306.3,194.9z
		 M310.8,188.7c-0.1,0-0.2,0-0.3-0.1c-0.2-0.2-0.2-0.5-0.1-0.7c0,0,0,0,0,0l0.6-0.7c0.2-0.2,0.5-0.3,0.7-0.1s0.3,0.5,0.1,0.7
		c0,0-0.1,0.1-0.1,0.1c-0.2,0.2-0.4,0.5-0.6,0.7C311.1,188.6,311,188.7,310.8,188.7L310.8,188.7z M316.4,183.4
		c-0.2,0-0.3-0.1-0.4-0.2c-0.2-0.2-0.1-0.5,0.1-0.7c0,0,0,0,0,0l0.8-0.6c0.2-0.1,0.5-0.1,0.7,0.2c0.1,0.2,0.1,0.5-0.1,0.7l-0.8,0.6
		C316.6,183.4,316.5,183.4,316.4,183.4L316.4,183.4z M323.1,179.7c-0.3,0-0.5-0.1-0.6-0.4c0-0.3,0.1-0.5,0.4-0.6l0.9-0.3
		c0.3-0.1,0.5,0.1,0.6,0.4c0,0.2-0.1,0.5-0.3,0.6l-0.9,0.3L323.1,179.7z"/>
	<path class="st1" d="M294.1,254.2L294.1,254.2c-0.3,0-0.5-0.2-0.5-0.5c0,0,0,0,0,0v-0.5c0-0.3,0.2-0.5,0.5-0.5l0,0
		c0.3,0,0.5,0.2,0.5,0.5v0.5C294.6,254,294.4,254.2,294.1,254.2C294.2,254.2,294.1,254.2,294.1,254.2z"/>
	
		<linearGradient id="SVGID_12_" gradientUnits="userSpaceOnUse" x1="277.6956" y1="420.89" x2="281.5756" y2="142.4899" gradientTransform="matrix(1 0 0 -1 0 770)">
		<stop  offset="0" style="stop-color:#010101;stop-opacity:0"/>
		<stop  offset="0.95" style="stop-color:#010101"/>
	</linearGradient>
	<ellipse class="st14" cx="278.3" cy="389.6" rx="112.7" ry="15"/>
	<path class="st1" d="M261.3,254.2c4-4.9,9.1-9,15.1-10.7c7-2,14.4-0.7,21.6-1.3c-1.4,6-3.9,11.8-7.5,16.8c-1.8,2.7-4.1,5.1-6.8,6.9
		c-7,4.5-16.2,3.4-24.5,2.9c-2.2-0.1-4.7-0.1-6.2,1.5c-0.7,0.7-3.4,2.8-3.1,0.5c0.1-0.7,2.8-3.2,3.3-4.1
		C255.5,262.3,258.2,258.1,261.3,254.2z"/>
	<path class="st1" d="M243.8,251.1c-3.3-6.3-9.3-10.7-16.2-12.1c-5.1-1-10.3-0.4-15.4-1.1c4.2,7.5,6.4,16.7,13.5,21.5
		c6.2,4.2,14.5,3.7,20.4,8.4c1.6,1.3,2.9,3.5,3.7,0.4c0.4-1.7-0.3-2.9-1-4.3C246.8,259.6,245.9,255.1,243.8,251.1z"/>
	
		<linearGradient id="SVGID_13_" gradientUnits="userSpaceOnUse" x1="291.4287" y1="500.2926" x2="263.9087" y2="467.9126" gradientTransform="matrix(1 0 0 -1 -8.73 749.02)">
		<stop  offset="0" style="stop-color:#010101;stop-opacity:0"/>
		<stop  offset="0.95" style="stop-color:#010101"/>
	</linearGradient>
	<path class="st15" d="M261.3,254.2c4-4.9,9.1-9,15.1-10.7c7-2,14.4-0.7,21.6-1.3c-1.4,6-3.9,11.8-7.5,16.8
		c-1.8,2.7-4.1,5.1-6.8,6.9c-7,4.5-16.2,3.4-24.5,2.9c-2.2-0.1-4.7-0.1-6.2,1.5c-0.7,0.7-3.4,2.8-3.1,0.5c0.1-0.7,2.8-3.2,3.3-4.1
		C255.5,262.3,258.2,258.1,261.3,254.2z"/>
	
		<linearGradient id="SVGID_14_" gradientUnits="userSpaceOnUse" x1="235.6496" y1="501.8495" x2="259.6896" y2="479.5095" gradientTransform="matrix(1 0 0 -1 -8.73 749.02)">
		<stop  offset="0" style="stop-color:#010101;stop-opacity:0"/>
		<stop  offset="0.95" style="stop-color:#010101"/>
	</linearGradient>
	<path class="st16" d="M243.8,251.1c-3.3-6.3-9.3-10.7-16.2-12.1c-5.1-1-10.3-0.4-15.4-1.1c4.2,7.5,6.4,16.7,13.5,21.5
		c6.2,4.2,14.5,3.7,20.4,8.4c1.6,1.3,2.9,3.5,3.7,0.4c0.4-1.7-0.3-2.9-1-4.3C246.8,259.6,245.9,255.1,243.8,251.1z"/>
	<path class="st1" d="M258,324.7c3.3-5.5,7.9-10.4,13.8-13c6.8-3,14.5-2.7,21.7-4.3c-0.5,6.3-2.3,12.5-5.2,18.1
		c-1.4,3-3.4,5.7-5.9,7.9c-6.5,5.6-15.9,5.7-24.4,6.4c-2.2,0.2-4.7,0.6-6.1,2.4c-0.6,0.8-3.1,3.3-3,0.9c0-0.8,2.4-3.7,2.8-4.6
		C253.4,333.7,255.5,329.1,258,324.7z"/>
	<path class="st1" d="M242.6,328.4c-4.4-5.8-11.1-9.2-18.4-9.5c-5.3-0.2-10.4,1.4-15.7,1.4c5.5,6.8,9.2,15.8,17.2,19.4
		c6.9,3.2,15.2,1.4,21.9,5c1.9,1,3.5,3,3.8-0.3c0.2-1.8-0.8-2.9-1.7-4.2C247.1,336.6,245.4,332.2,242.6,328.4z"/>
	
		<linearGradient id="SVGID_15_" gradientUnits="userSpaceOnUse" x1="287.1909" y1="429.4484" x2="257.4109" y2="397.2384" gradientTransform="matrix(1 0 0 -1 -8.73 749.02)">
		<stop  offset="0" style="stop-color:#010101;stop-opacity:0"/>
		<stop  offset="0.95" style="stop-color:#010101"/>
	</linearGradient>
	<path class="st17" d="M258,324.7c3.3-5.5,7.9-10.4,13.8-13c6.8-3,14.5-2.7,21.7-4.3c-0.5,6.3-2.3,12.5-5.2,18.1
		c-1.4,3-3.4,5.7-5.9,7.9c-6.5,5.6-15.9,5.7-24.4,6.4c-2.2,0.2-4.7,0.6-6.1,2.4c-0.6,0.8-3.1,3.3-3,0.9c0-0.8,2.4-3.7,2.8-4.6
		C253.4,333.7,255.5,329.1,258,324.7z"/>
	
		<linearGradient id="SVGID_16_" gradientUnits="userSpaceOnUse" x1="237.1058" y1="419.3832" x2="264.4658" y2="402.2332" gradientTransform="matrix(1 0 0 -1 -8.73 749.02)">
		<stop  offset="0" style="stop-color:#010101;stop-opacity:0"/>
		<stop  offset="0.95" style="stop-color:#010101"/>
	</linearGradient>
	<path class="st18" d="M242.6,328.4c-4.4-5.8-11.1-9.2-18.4-9.5c-5.3-0.2-10.4,1.4-15.7,1.4c5.5,6.8,9.2,15.8,17.2,19.4
		c6.9,3.2,15.2,1.4,21.9,5c1.9,1,3.5,3,3.8-0.3c0.2-1.8-0.8-2.9-1.7-4.2C247.1,336.6,245.4,332.2,242.6,328.4z"/>
	<rect x="248" y="226.9" class="st1" width="4.9" height="153.8"/>
	
		<linearGradient id="SVGID_17_" gradientUnits="userSpaceOnUse" x1="247.0199" y1="466.3062" x2="255.5999" y2="465.9762" gradientTransform="matrix(1 0 0 -1 0 770)">
		<stop  offset="0" style="stop-color:#010101;stop-opacity:0"/>
		<stop  offset="0.95" style="stop-color:#010101"/>
	</linearGradient>
	<rect x="248" y="226.9" class="st19" width="4.9" height="153.8"/>
	<circle class="st20" cx="249.2" cy="202.5" r="31"/>
	
		<ellipse transform="matrix(0.1602 -0.9871 0.9871 0.1602 9.4452 416.0216)" class="st21" cx="249.2" cy="202.5" rx="26.4" ry="26.4"/>
	<path class="st20" d="M246.8,219.1v-4.2c-2.3,0-4.5-0.6-6.4-1.8l1-2.8c1.8,1.2,3.9,1.8,6,1.8c3,0,5-1.7,5-4.1s-1.6-3.7-4.7-5
		c-4.3-1.7-6.9-3.6-6.9-7.3c0-3.5,2.5-6.1,6.3-6.8v-4.2h2.6v4.1c1.9,0,3.8,0.5,5.4,1.5l-1,2.8c-1.6-1-3.4-1.5-5.3-1.4
		c-3.2,0-4.4,1.9-4.4,3.6c0,2.2,1.6,3.3,5.2,4.8c4.3,1.8,6.5,3.9,6.5,7.7c0,3.3-2.3,6.4-6.6,7.1v4.4L246.8,219.1z"/>
	<path class="st1" d="M289.2,382.3c-8.1,4.5-22.5,7.5-38.9,7.5c-15.8,0-29.7-2.8-37.9-6.9c13.8-21.3,42.2-27.5,63.5-13.7
		C281.1,372.5,285.7,377,289.2,382.3z"/>
	
		<linearGradient id="SVGID_18_" gradientUnits="userSpaceOnUse" x1="270.4704" y1="372.2245" x2="223.2104" y2="376.1044" gradientTransform="matrix(1 0 0 -1 -8.73 749.02)">
		<stop  offset="0" style="stop-color:#010101;stop-opacity:0"/>
		<stop  offset="0.95" style="stop-color:#010101"/>
	</linearGradient>
	<path class="st22" d="M289.2,382.3c-8.1,4.5-22.5,7.5-38.9,7.5c-15.8,0-29.7-2.8-37.9-6.9c13.8-21.3,42.2-27.5,63.5-13.7
		C281.1,372.5,285.7,377,289.2,382.3z"/>
	<path class="st1" d="M341.3,298.5c2.5-3.2,5.8-5.6,9.7-6.9c4.5-1.3,9.2-0.4,13.9-0.8c-0.9,3.9-2.5,7.6-4.8,10.8
		c-1.1,1.7-2.6,3.2-4.3,4.4c-4.5,2.9-10.3,2.2-15.7,1.9c-1.4-0.1-3,0-4,1c-0.4,0.4-2.2,1.8-2,0.3c0.1-0.5,1.8-2.1,2.1-2.6
		C337.6,303.7,339.4,301,341.3,298.5z"/>
	<path class="st1" d="M330.2,296.5c-2.1-4-5.9-6.8-10.4-7.8c-3.2-0.7-6.6-0.2-9.9-0.7c2.7,4.8,4.1,10.7,8.6,13.8
		c4,2.7,9.3,2.4,13,5.4c1,0.8,1.9,2.2,2.4,0.2c0.2-1-0.1-2-0.6-2.8C332.1,302,331.5,299.1,330.2,296.5z"/>
	
		<linearGradient id="SVGID_19_" gradientUnits="userSpaceOnUse" x1="363.787" y1="454.0426" x2="346.177" y2="433.3326" gradientTransform="matrix(1 0 0 -1 -8.73 749.02)">
		<stop  offset="0" style="stop-color:#010101;stop-opacity:0"/>
		<stop  offset="0.95" style="stop-color:#010101"/>
	</linearGradient>
	<path class="st23" d="M341.3,298.5c2.5-3.2,5.8-5.6,9.7-6.9c4.5-1.3,9.2-0.4,13.9-0.8c-0.9,3.9-2.5,7.6-4.8,10.8
		c-1.1,1.7-2.6,3.2-4.3,4.4c-4.5,2.9-10.3,2.2-15.7,1.9c-1.4-0.1-3,0-4,1c-0.4,0.4-2.2,1.8-2,0.3c0.1-0.5,1.8-2.1,2.1-2.6
		C337.6,303.7,339.4,301,341.3,298.5z"/>
	
		<linearGradient id="SVGID_20_" gradientUnits="userSpaceOnUse" x1="328.1099" y1="455.0299" x2="343.4799" y2="440.7399" gradientTransform="matrix(1 0 0 -1 -8.73 749.02)">
		<stop  offset="0" style="stop-color:#010101;stop-opacity:0"/>
		<stop  offset="0.95" style="stop-color:#010101"/>
	</linearGradient>
	<path class="st24" d="M330.2,296.5c-2.1-4-5.9-6.8-10.4-7.8c-3.2-0.7-6.6-0.2-9.9-0.7c2.7,4.8,4.1,10.7,8.6,13.8
		c4,2.7,9.3,2.4,13,5.4c1,0.8,1.9,2.2,2.4,0.2c0.2-1-0.1-2-0.6-2.8C332.1,302,331.5,299.1,330.2,296.5z"/>
	<path class="st1" d="M339.3,343.6c2-3.6,5.1-6.5,8.8-8.3c4.3-1.9,9.3-1.8,13.9-2.8c-0.3,4-1.5,8-3.3,11.6c-0.9,1.9-2.2,3.6-3.8,5.1
		c-4.2,3.6-10.2,3.6-15.6,4.1c-1.4,0.1-3,0.4-3.9,1.5c-0.4,0.5-2,2.1-2,0.6c0-0.5,1.5-2.3,1.8-3
		C336.3,349.4,337.7,346.4,339.3,343.6z"/>
	<path class="st1" d="M329.4,346c-2.8-3.7-7.1-5.9-11.7-6.1c-3.4-0.1-6.7,0.9-10.1,0.9c3.5,4.4,5.9,10.1,11,12.4
		c4.4,2,9.7,0.9,14,3.2c1.2,0.7,2.2,1.9,2.4-0.2c0-1-0.4-2-1.1-2.7C332.3,351.2,331.3,348.4,329.4,346z"/>
	
		<linearGradient id="SVGID_21_" gradientUnits="userSpaceOnUse" x1="361.0898" y1="408.7002" x2="342.0298" y2="388.0901" gradientTransform="matrix(1 0 0 -1 -8.73 749.02)">
		<stop  offset="0" style="stop-color:#010101;stop-opacity:0"/>
		<stop  offset="0.95" style="stop-color:#010101"/>
	</linearGradient>
	<path class="st25" d="M339.3,343.6c2-3.6,5.1-6.5,8.8-8.3c4.3-1.9,9.3-1.8,13.9-2.8c-0.3,4-1.5,8-3.3,11.6
		c-0.9,1.9-2.2,3.6-3.8,5.1c-4.2,3.6-10.2,3.6-15.6,4.1c-1.4,0.1-3,0.4-3.9,1.5c-0.4,0.5-2,2.1-2,0.6c0-0.5,1.5-2.3,1.8-3
		C336.3,349.4,337.7,346.4,339.3,343.6z"/>
	
		<linearGradient id="SVGID_22_" gradientUnits="userSpaceOnUse" x1="329.0258" y1="402.2574" x2="346.5258" y2="391.2774" gradientTransform="matrix(1 0 0 -1 -8.73 749.02)">
		<stop  offset="0" style="stop-color:#010101;stop-opacity:0"/>
		<stop  offset="0.95" style="stop-color:#010101"/>
	</linearGradient>
	<path class="st26" d="M329.4,346c-2.8-3.7-7.1-5.9-11.7-6.1c-3.4-0.1-6.7,0.9-10.1,0.9c3.5,4.4,5.9,10.1,11,12.4
		c4.4,2,9.7,0.9,14,3.2c1.2,0.7,2.2,1.9,2.4-0.2c0-1-0.4-2-1.1-2.7C332.3,351.2,331.3,348.4,329.4,346z"/>
	<rect x="332.9" y="281" class="st1" width="3.1" height="98.4"/>
	
		<linearGradient id="SVGID_23_" gradientUnits="userSpaceOnUse" x1="332.2401" y1="439.8532" x2="337.7301" y2="439.6432" gradientTransform="matrix(1 0 0 -1 0 770)">
		<stop  offset="0" style="stop-color:#010101;stop-opacity:0"/>
		<stop  offset="0.95" style="stop-color:#010101"/>
	</linearGradient>
	<rect x="332.9" y="281" class="st27" width="3.1" height="98.4"/>
	<circle class="st20" cx="333.6" cy="265.4" r="19.8"/>
	<circle class="st21" cx="333.6" cy="265.4" r="16.9"/>
	<path class="st20" d="M332.1,276v-2.7c-1.5,0-2.9-0.4-4.1-1.2l0.6-1.8c1.1,0.8,2.5,1.2,3.9,1.2c1.9,0,3.2-1.1,3.2-2.6s-1-2.4-3-3.2
		c-2.7-1.1-4.4-2.3-4.4-4.6c0-2.3,1.8-4.1,4-4.3V254h1.7v2.6c1.2,0,2.4,0.3,3.5,0.9l-0.7,1.8c-1-0.6-2.2-0.9-3.4-0.9
		c-2.1,0-2.8,1.2-2.8,2.3c0,1.4,1,2.1,3.3,3c2.8,1.1,4.1,2.5,4.1,4.9c0,2.4-1.9,4.3-4.2,4.6v2.8H332.1z"/>
	<path class="st1" d="M359.3,380.4c-5.2,2.9-14.4,4.8-24.9,4.8c-10.1,0-19-1.8-24.3-4.4c8.8-13.6,27-17.6,40.6-8.8
		C354.1,374.2,357,377.1,359.3,380.4z"/>
	
		<linearGradient id="SVGID_24_" gradientUnits="userSpaceOnUse" x1="351.15" y1="372.5395" x2="316.68" y2="373.5095" gradientTransform="matrix(1 0 0 -1 -8.73 749.02)">
		<stop  offset="0" style="stop-color:#010101;stop-opacity:0"/>
		<stop  offset="0.95" style="stop-color:#010101"/>
	</linearGradient>
	<path class="st28" d="M359.3,380.4c-5.2,2.9-14.4,4.8-24.9,4.8c-10.1,0-19-1.8-24.3-4.4c8.8-13.6,27-17.6,40.6-8.8
		C354.1,374.2,357,377.1,359.3,380.4z"/>
</g>
<g>
	<path class="st0" d="M1336.8,591c-0.1,1.7-0.2,3.4-0.4,5c-1.2,12.5-4.3,24.7-7.4,36.8c-6.2,24.1-13.3,49.2-30.3,67.2
		c-20.4,21.7-51.5,29-81,30s-59-3.3-88.3-0.4c-29.7,2.9-58.8,13.3-88.6,12.2c-14.8-0.6-29.3-3.9-42.7-9.8
		c-13.4-5.9-25.9-14.4-34.9-26.1c-14.1-18.2-18.1-41-19.8-62.8c-0.2-2.1-0.5-4.3-1-6.4l0,0c-0.1-0.7-0.3-1.3-0.5-2
		c-2.7-10.2-8.1-19-11.4-28.7c-0.6-1.7-1.1-3.5-1.5-5.3c-1-4.4-1.3-8.9-0.9-13.4c1.2-12.3,5.8-24,10.6-35.5
		c2.1-5.1,4.3-10.3,6.6-15.3c5.7-12.2,12.5-23.8,22.4-33.3c19.8-18.9,49-26.1,77-29.6c28-3.5,56.8-4.1,83.4-13.1
		c27.5-9.4,52-27.6,81.2-30.3c21.3-2,42.7,4.8,61,15.2c40.4,22.9,62.8,78.3,66.2,124.6C1337.1,577.1,1337.1,584,1336.8,591z"/>
	
		<linearGradient id="SVGID_25_" gradientUnits="userSpaceOnUse" x1="1051.9768" y1="160.4684" x2="1053.8203" y2="-4.95" gradientTransform="matrix(1 0 0 -1 0 770)">
		<stop  offset="0" style="stop-color:#010101;stop-opacity:0"/>
		<stop  offset="0.95" style="stop-color:#010101"/>
	</linearGradient>
	<ellipse class="st29" cx="1052.5" cy="653.9" rx="54.6" ry="10.1"/>
	
		<linearGradient id="SVGID_26_" gradientUnits="userSpaceOnUse" x1="1210.5095" y1="175.712" x2="1212.8706" y2="-36.0123" gradientTransform="matrix(1 0 0 -1 0 770)">
		<stop  offset="0" style="stop-color:#010101;stop-opacity:0"/>
		<stop  offset="0.95" style="stop-color:#010101"/>
	</linearGradient>
	<ellipse class="st30" cx="1211.1" cy="651" rx="67.8" ry="13"/>
	<path class="st31" d="M1034.7,614.1c-3.2-0.1-6.4-0.4-9.6-0.9c-0.8-0.2-1.6-0.2-2.5-0.2c-1,0.2-2,0.5-2.9,1
		c-5.6,2.4-11.8,3-17.8,1.9c-1.1-0.2-2.4-0.6-3-1.5c-0.3-0.5-0.5-1.1-0.5-1.7c-0.2-1.8-0.3-3.7-0.1-5.6c0-1,0.3-2.1,0.7-3
		c0.6-1,1.5-1.7,2.5-2.2c3.8-2,8.4-1.4,12.8-1.3c5.1,0.2,10.4-0.2,15.4,1.1c3.5,1,7,3.1,8.8,6.2
		C1040.8,611.5,1039.1,614.3,1034.7,614.1z"/>
	
		<linearGradient id="SVGID_27_" gradientUnits="userSpaceOnUse" x1="1029.0825" y1="127.0899" x2="1009.6762" y2="163.3438" gradientTransform="matrix(1 0 0 -1 -3.03 751.85)">
		<stop  offset="0" style="stop-color:#010101;stop-opacity:0"/>
		<stop  offset="0.95" style="stop-color:#010101"/>
	</linearGradient>
	<path class="st32" d="M1034.7,614.1c-3.2-0.1-6.4-0.4-9.6-0.9c-0.8-0.2-1.6-0.2-2.5-0.2c-1,0.2-2,0.5-2.9,1
		c-5.6,2.4-11.8,3-17.8,1.9c-1.1-0.2-2.4-0.6-3-1.5c-0.3-0.5-0.5-1.1-0.5-1.7c-0.2-1.8-0.3-3.7-0.1-5.6c0-1,0.3-2.1,0.7-3
		c0.6-1,1.5-1.7,2.5-2.2c3.8-2,8.4-1.4,12.8-1.3c5.1,0.2,10.4-0.2,15.4,1.1c3.5,1,7,3.1,8.8,6.2
		C1040.8,611.5,1039.1,614.3,1034.7,614.1z"/>
	<polygon class="st1" points="1149.5,629 1175.3,646.7 1260.2,647.3 1236.4,630.9 	"/>
	<polygon class="st5" points="1159.2,629.7 1179,643.3 1244.3,643.8 1226,631.2 	"/>
	<path class="st1" d="M1138,572.4c0,0,20.9-10,28-25.9l22.5,6.9c0,0-24.1,31.2-33.5,32.1L1138,572.4z"/>
	<path class="st1" d="M1159.6,590.8c1.3-0.8,20.3-6.9,28.2-21.4l19.1,9.8c0,0-18.8,24.7-35.7,25.4L1159.6,590.8z"/>
	<polygon class="st1" points="1227.4,615.7 1241.5,631.3 1189.4,637.2 1182.8,625.7 	"/>
	
		<linearGradient id="SVGID_28_" gradientUnits="userSpaceOnUse" x1="1095.1844" y1="208.9016" x2="1108.887" y2="133.9266" gradientTransform="matrix(1.18 0.12 0.1 -0.99 -105.22 680.92)">
		<stop  offset="0" style="stop-color:#010101;stop-opacity:0"/>
		<stop  offset="0.95" style="stop-color:#010101"/>
	</linearGradient>
	<path class="st33" d="M1189.8,624.3l33.8-6.3c0,0,1.6,1.4,4.8,1.4l6,6.7c0,0-1.8,2.3-0.8,3.7l-37.4,5.1c0,0-2.9-1.7-5.4-1.6
		l-4.4-6.2C1186.4,627.1,1190.4,626.7,1189.8,624.3z"/>
	<path class="st1" d="M1107.5,596l-1.4-5.2c-0.9-3-3.3-0.4-6.2,1l-81.9,38.3c-2.2,1-3.3,3.4-2.8,5.6l1.1,4.5
		c0.3,1.1,0.9,2.2,1.9,2.9l13.7,10.2c1.9,1.4,4.5,1.4,6.4,0l67.5-52C1107.4,600,1108.1,597.9,1107.5,596z"/>
	
		<linearGradient id="SVGID_29_" gradientUnits="userSpaceOnUse" x1="1073.304" y1="105.2162" x2="1054.0133" y2="171.7293" gradientTransform="matrix(1 0 0 -1 -3.03 751.85)">
		<stop  offset="0" style="stop-color:#010101;stop-opacity:0"/>
		<stop  offset="0.95" style="stop-color:#010101"/>
	</linearGradient>
	<path class="st34" d="M1107.5,596l-1.4-5.2c-0.9-3-3.3-0.4-6.2,1l-81.9,38.3c-2.2,1-3.3,3.4-2.8,5.6l1.1,4.5
		c0.3,1.1,0.9,2.2,1.9,2.9l13.7,10.2c1.9,1.4,4.5,1.4,6.4,0l67.5-52C1107.4,600,1108.1,597.9,1107.5,596z"/>
	<path class="st1" d="M1017.1,629.6l60.5-48.1c0.7-0.6,1.7-0.7,2.5-0.5l24.2,7.6c1.4,0.4,2.2,1.9,1.7,3.3c-0.2,0.5-0.5,0.9-0.9,1.3
		l-68.6,51.9c-0.9,0.7-2.3,0.7-3.2,0l-16.2-11.4c-1.2-0.9-1.4-2.5-0.6-3.7C1016.8,629.9,1016.9,629.7,1017.1,629.6z"/>
	
		<linearGradient id="SVGID_30_" gradientUnits="userSpaceOnUse" x1="1072.7351" y1="134.545" x2="977.5709" y2="181.2645" gradientTransform="matrix(1 0 0 -1 -3.03 751.85)">
		<stop  offset="0" style="stop-color:#010101;stop-opacity:0"/>
		<stop  offset="0.95" style="stop-color:#010101"/>
	</linearGradient>
	<path class="st35" d="M1017.1,629.6l60.5-48.1c0.7-0.6,1.7-0.7,2.5-0.5l24.2,7.6c1.4,0.4,2.2,1.9,1.7,3.3c-0.2,0.5-0.5,0.9-0.9,1.3
		l-68.6,51.9c-0.9,0.7-2.3,0.7-3.2,0l-16.2-11.4c-1.2-0.9-1.4-2.5-0.6-3.7C1016.8,629.9,1016.9,629.7,1017.1,629.6z"/>
	<polygon class="st5" points="1101.3,593.8 1099.6,595 1040.2,640 1022.3,628.6 1021.3,627.8 1074.4,585.4 	"/>
	<polygon class="st36" points="1099.6,595 1040.2,640 1022.3,628.6 1074.3,587.1 	"/>
	<polygon class="st1" points="1056.3,626.9 1037,617.2 1042.9,612.2 1062.2,621.9 	"/>
	
		<linearGradient id="SVGID_31_" gradientUnits="userSpaceOnUse" x1="1053.3212" y1="156.1231" x2="1043.1129" y2="140.4812" gradientTransform="matrix(1 0 0 -1 0 770)">
		<stop  offset="0" style="stop-color:#010101;stop-opacity:0"/>
		<stop  offset="0.95" style="stop-color:#010101"/>
	</linearGradient>
	<polygon class="st37" points="1056.3,626.9 1037,617.2 1042.9,612.2 1062.2,621.9 	"/>
	<path class="st1" d="M1096.7,579.1l-2.1-0.9c0.7-1.4,1.4-2.7,2.2-4l2,1.1C1098,576.6,1097.3,577.8,1096.7,579.1z"/>
	<path class="st1" d="M1103.2,569l-1.8-1.4c1.7-2.1,3.6-4.1,5.6-5.9l1.6,1.6C1106.6,565,1104.9,566.9,1103.2,569z M1114.8,558.6
		l-1.2-1.9c2.4-1.5,4.9-2.6,7.5-3.5l0.7,2.1C1119.4,556.2,1117,557.3,1114.8,558.6z M1137.4,553.8c-2.6-0.3-5.2-0.4-7.8-0.1
		l-0.2-2.2c2.8-0.2,5.6-0.2,8.3,0.1L1137.4,553.8z"/>
	<path class="st1" d="M1149.3,557.1c-1.4-0.6-2.8-1.1-4.2-1.5l0.7-2.1c1.5,0.5,2.9,1,4.4,1.6L1149.3,557.1z"/>
	<polygon class="st1" points="1150.2,636.1 1149.5,629 1175.3,646.7 1260.2,647.3 1258.5,651.8 1172.8,652.2 	"/>
	
		<linearGradient id="SVGID_32_" gradientUnits="userSpaceOnUse" x1="1205.7749" y1="136.671" x2="1197.7894" y2="94.5074" gradientTransform="matrix(1 0 0 -1 0 770)">
		<stop  offset="0" style="stop-color:#010101;stop-opacity:0"/>
		<stop  offset="0.95" style="stop-color:#010101"/>
	</linearGradient>
	<polygon class="st38" points="1150.2,636.1 1149.5,629 1175.3,646.7 1260.2,647.3 1258.5,651.8 1172.8,652.2 	"/>
	<path class="st31" d="M1301.3,583.9c-0.1,2.8-0.3,5.6-0.4,8.4c-0.1,1.6-0.2,3.2-0.3,4.8c-0.1,1.2-0.3,2.6-1.4,3.1
		c-0.1,0.1-0.3,0.1-0.5,0.2c-0.5,0.1-1,0.1-1.6,0.1l-7.2-0.5c-2.3-0.2-4.7-0.2-7,0c-4.6,0.6-8.9,2.9-13.5,3.4c-2,0.2-4.1,0.1-6.1,0
		l-18.8-1.2c-1.6,0-3.2-0.3-4.7-0.9c-1.5-0.6-2.7-1.9-2.9-3.4c-0.1-1.1,0.3-2.2,0.2-3.3c0,0,0-0.1,0-0.1c-0.3-2.9-4.3-5.3-3.1-8.1
		c0.3-0.6,0.8-1.2,0.9-1.9c0-0.6-0.3-1.1-0.6-1.5c-1.1-1.6-2.1-3.5-1.6-5.5c0.3-1.4,1.3-2.6,1.3-3.9c-0.1-1.6-1.5-2.8-1.6-4.4
		c-0.2-1.6,1.1-3.2,2.6-3.9c1.6-0.6,3.3-0.9,5-0.8l9-0.3c1.5,0,3.1-0.1,4.2-1.1c1.3-1.2,1.3-3.3,0.7-4.9c-0.6-1.6-1.6-3.1-2.2-4.8
		c-0.8-2.7-0.2-5.7,1.6-7.9c0.3-0.4,0.7-0.7,1.2-0.9c1.6-0.6,3,1.3,3.7,2.8c2.6,5.7,6.2,10.9,10.7,15.3c5.7,5.4,12.8,9,20.6,10.6
		c2.3,0.5,5.5,0.2,8.2,0.5c0.8,0.1,1.5,0.3,2.2,0.6C1302.8,575.8,1301.4,581.3,1301.3,583.9z"/>
	<path class="st31" d="M1336.8,591c0,0.6-0.1,1.2-0.1,1.7c-0.1,1.1-0.2,2.2-0.3,3.3c-0.4,1.1-1,2.1-1.8,2.9
		c-2.1,1.9-5.1,2.1-7.9,2.1c-8.9,0.1-17.7-0.1-26.6-0.7c-0.5,0-0.9-0.1-1.4-0.1c-1.2-0.1-2.4-0.5-3.4-1.1c-2.1-1.5-2.7-4.4-3.1-7
		c-0.8-5-1.6-10.2-0.3-15.1c0.1-0.5,0.3-1,0.5-1.5c0.2-0.5,0.5-0.9,1-1.2c0.8-0.4,1.7-0.6,2.6-0.6c0.6,0,1.1,0,1.7,0
		c6.5-0.1,13,0.6,19.5,0.4c3.6,0,7.3-0.4,10.8-1.2c1.7-0.4,6.1-2.8,8.5-2.9C1337.1,577,1337.1,584,1336.8,591z"/>
	
		<linearGradient id="SVGID_33_" gradientUnits="userSpaceOnUse" x1="1289.4072" y1="191.0326" x2="1291.4838" y2="27.6122" gradientTransform="matrix(1 0 0 -1 -3.03 751.85)">
		<stop  offset="0" style="stop-color:#010101;stop-opacity:0"/>
		<stop  offset="0.95" style="stop-color:#010101"/>
	</linearGradient>
	<path class="st39" d="M1336.6,592.8c-0.1,1.1-0.2,2.2-0.3,3.3c-0.4,1.1-1,2.1-1.8,2.9c-2.1,1.9-5.1,2.1-7.9,2.1
		c-8.9,0.1-17.7-0.1-26.6-0.7c-0.5,0-0.9-0.1-1.4-0.1c-0.5,0.1-1,0.1-1.6,0.1l-7.2-0.5c-2.3-0.2-4.7-0.2-7,0
		c-4.6,0.6-8.9,2.9-13.5,3.4c-2,0.2-4.1,0.1-6.1,0l-18.8-1.2c-1.6,0-3.2-0.3-4.7-0.9c-1.5-0.6-2.7-1.9-2.9-3.4
		c-0.1-1.1,0.3-2.2,0.2-3.3c0,0,0-0.1,0-0.1c3.9,3.3,9.6,3.3,14.8,3.1c9-0.3,18.1-0.5,26.8-2.7c-1.1-2.6-0.6-5.6,1.3-7.8
		c0.8-0.9,1.9-1.6,2.8-2.4c1.9-1.8,3-4.3,4.7-6.3c1.2-1.5,3-2.4,4.9-2.7c0.7-0.1,1.5,0.1,2.1,0.4c2.7,1.3,3,4.9,2.9,7.9
		c-0.2,2.9-0.1,6.5,2.6,8c0.3,0.2,0.6,0.3,0.9,0.4c1,0.3,2,0.4,3.1,0.4c8.3,0.2,16.6,0.2,24.9,0
		C1331.5,592.4,1334.1,592.5,1336.6,592.8z"/>
	<path class="st31" d="M1008.1,589.7c4.9-0.7,10-0.4,14.8,0.7c3.6,1,7,2.6,10.1,4.7c8.4,5.5,15.2,13,19.7,21.8
		c0.7,1.3,1.1,3.2-0.1,4c-1.1,0.7-2.5,0-3.6-0.7c-4.7-3.1-20.2-18.4-31.4-13.4c-0.3,2.3,2.8,6.9,3.2,9.2c0.3,2.1-1.4,4-3.4,4.8
		c-2,0.7-4.3,0.6-6.4,0.3c-6.2-0.6-12.3,0-18.5-0.1c-14.5-0.3-23.5-10.4-22.7-15.7C970.7,600.9,982.1,592.8,1008.1,589.7z"/>
	<polygon class="st1" points="1174,617.2 1213.9,604.5 1226.7,620.1 1181.4,630.7 	"/>
	<path class="st1" d="M981.8,613.7c-0.6,2.7-1.7,5.2-3.3,7.4c-1.9-0.4-3.8-0.3-5.7,0.2c-2.8,0.7-5.5,2.1-8,3.4
		c-6.2,3.2-12.6,6.1-19.1,8.7c-1.2,0.5-2.5,1-3.7,1.4c-1.6-6.2-4.3-11.9-6.9-17.6c-1.7-3.6-3.2-7.3-4.5-11.1
		c-0.6-1.7-1.1-3.5-1.5-5.3c10.5-4.2,27.4-1.1,36.3-2.9c2.5-0.6,5-1.2,7.4-2.1c2.6-0.9,5.2-1.6,7.9-2.1
		C982,600.2,983.2,607.4,981.8,613.7z"/>
	
		<linearGradient id="SVGID_34_" gradientUnits="userSpaceOnUse" x1="961.093" y1="138.7436" x2="970.7872" y2="76.8638" gradientTransform="matrix(1 0 0 -1 -3.03 751.85)">
		<stop  offset="0" style="stop-color:#010101;stop-opacity:0"/>
		<stop  offset="0.95" style="stop-color:#010101"/>
	</linearGradient>
	<path class="st40" d="M981.8,613.7c-0.6,2.7-1.7,5.2-3.3,7.4c-4.7-1-9.4,1.4-13.7,3.7c-6.2,3.2-12.6,6.1-19.1,8.7
		c-1.2,0.5-2.5,1-3.7,1.4c-1.6-6.2-4.3-11.9-6.9-17.6c4.1,1.4,8.3,1.9,12.6,1.7c6.2-0.3,12.2-1.7,18.3-2.8
		C971.2,615.1,976.5,614.4,981.8,613.7z"/>
	
		<linearGradient id="SVGID_35_" gradientUnits="userSpaceOnUse" x1="1151.7666" y1="205.0721" x2="1201.9285" y2="142.138" gradientTransform="matrix(1 0 0 -1 -3.03 751.85)">
		<stop  offset="0" style="stop-color:#010101;stop-opacity:0"/>
		<stop  offset="0.95" style="stop-color:#010101"/>
	</linearGradient>
	<path class="st41" d="M1169.4,549.5l11,3.6c0,0-1.5,3.4,0.3,4.9c0,0-12.6,18-23.2,22.4c0,0-1.5-1.6-6.4-1.2l-7.6-5.5
		c0,0,2.8-1.3,2.2-3.4c0,0,15.2-7.5,19.4-17.5C1165.1,552.8,1169.4,553.4,1169.4,549.5z"/>
	
		<linearGradient id="SVGID_36_" gradientUnits="userSpaceOnUse" x1="1174.1884" y1="185.7743" x2="1211.0386" y2="123.2148" gradientTransform="matrix(1 0 0 -1 -3.03 751.85)">
		<stop  offset="0" style="stop-color:#010101;stop-opacity:0"/>
		<stop  offset="0.95" style="stop-color:#010101"/>
	</linearGradient>
	<path class="st42" d="M1190.7,573.9l9.3,4.3c0,0-1.7,2.8-0.3,4.4c0,0-13.2,14.6-23.1,17.3c0,0-1.2-1.6-5.5-1.7l-6.1-5.7
		c0,0,2.6-0.9,2.3-2.8c0,0,14.3-5,19.1-13.4C1186.5,576.3,1190.2,577.3,1190.7,573.9z"/>
	
		<linearGradient id="SVGID_37_" gradientUnits="userSpaceOnUse" x1="1198.4541" y1="152.2223" x2="1211.125" y2="82.8769" gradientTransform="matrix(1 0 0 -1 -3.03 751.85)">
		<stop  offset="0" style="stop-color:#010101;stop-opacity:0"/>
		<stop  offset="0.95" style="stop-color:#010101"/>
	</linearGradient>
	<path class="st43" d="M1181.1,616.9l28-8.6c1.2,0.8,2.7,1.2,4.2,0.9l5.6,6.1c0,0-1.3,2.5-0.3,3.7l-31.2,7.7c0,0-2.6-1.4-4.7-1.1
		l-4.2-5.7C1178.5,620,1181.8,619.2,1181.1,616.9z"/>
	
		<linearGradient id="SVGID_38_" gradientUnits="userSpaceOnUse" x1="983.3641" y1="163.2403" x2="972.5284" y2="106.0299" gradientTransform="matrix(1 0 0 -1 -3.03 751.85)">
		<stop  offset="0" style="stop-color:#010101;stop-opacity:0"/>
		<stop  offset="0.95" style="stop-color:#010101"/>
	</linearGradient>
	<path class="st44" d="M981.8,613.7c-0.6,2.7-1.7,5.2-3.3,7.4c-1.9-0.4-3.8-0.3-5.7,0.2v-25.4c2.6-0.9,5.2-1.6,7.9-2.1
		C982,600.2,983.2,607.4,981.8,613.7z"/>
	<path class="st1" d="M1289.5,571.9l6,0.4c1.5,0.1,2.6,1.4,2.5,2.8l-1.8,23.9c-0.1,1.5-1.4,2.5-2.9,2.4l-6-0.4
		c-1.5-0.1-2.6-1.4-2.5-2.8l1.8-23.9C1286.7,572.9,1288,571.8,1289.5,571.9z"/>
	
		<linearGradient id="SVGID_39_" gradientUnits="userSpaceOnUse" x1="1280.2422" y1="170.9179" x2="1306.8206" y2="160.16" gradientTransform="matrix(1 0 0 -1 -3.0342 751.8539)">
		<stop  offset="0" style="stop-color:#010101;stop-opacity:0"/>
		<stop  offset="0.95" style="stop-color:#010101"/>
	</linearGradient>
	<path class="st45" d="M1289.5,571.9l6,0.4c1.5,0.1,2.6,1.4,2.5,2.8l-1.8,23.9c-0.1,1.5-1.4,2.5-2.9,2.4l-6-0.4
		c-1.5-0.1-2.6-1.4-2.5-2.8l1.8-23.9C1286.7,572.9,1288,571.8,1289.5,571.9z"/>
	<ellipse class="st1" cx="1290.9" cy="586.8" rx="9.4" ry="9.1"/>
	
		<linearGradient id="SVGID_40_" gradientUnits="userSpaceOnUse" x1="1290.8947" y1="211.7851" x2="1290.8947" y2="165.9225" gradientTransform="matrix(1 0 0 -1 0 770)">
		<stop  offset="0" style="stop-color:#010101;stop-opacity:0"/>
		<stop  offset="0.95" style="stop-color:#010101"/>
	</linearGradient>
	<ellipse class="st46" cx="1290.9" cy="586.8" rx="9.4" ry="9.1"/>
	<ellipse class="st1" cx="1290.8" cy="586.9" rx="8.1" ry="7.8"/>
	
		<linearGradient id="SVGID_41_" gradientUnits="userSpaceOnUse" x1="1282.7644" y1="183.1006" x2="1298.8933" y2="183.1006" gradientTransform="matrix(1 0 0 -1 0 770)">
		<stop  offset="0" style="stop-color:#FFFFFF;stop-opacity:0"/>
		<stop  offset="0.13" style="stop-color:#FFFFFF;stop-opacity:0.23"/>
		<stop  offset="0.23" style="stop-color:#FFFFFF;stop-opacity:0.41"/>
		<stop  offset="0.35" style="stop-color:#FFFFFF;stop-opacity:0.59"/>
		<stop  offset="0.48" style="stop-color:#FFFFFF;stop-opacity:0.74"/>
		<stop  offset="0.6" style="stop-color:#FFFFFF;stop-opacity:0.85"/>
		<stop  offset="0.72" style="stop-color:#FFFFFF;stop-opacity:0.93"/>
		<stop  offset="0.84" style="stop-color:#FFFFFF;stop-opacity:0.98"/>
		<stop  offset="0.95" style="stop-color:#FFFFFF"/>
	</linearGradient>
	<ellipse class="st47" cx="1290.8" cy="586.9" rx="8.1" ry="7.8"/>
	<path class="st1" d="M1274.1,541.4v-2.6c-1.4,0-2.9-0.4-4.1-1.1l0.6-1.7c1.2,0.7,2.5,1.1,3.9,1.1c1.9,0,3.2-1.1,3.2-2.5
		c0-1.5-1-2.3-3-3.1c-2.7-1-4.4-2.2-4.4-4.5c0-2.2,1.6-3.8,4-4.2v-2.6h1.7v2.5c1.2,0,2.4,0.3,3.5,0.9l-0.7,1.7
		c-1-0.6-2.2-0.9-3.4-0.9c-2.1,0-2.8,1.2-2.8,2.2c0,1.3,1,2,3.3,2.9c2.7,1.1,4.1,2.4,4.1,4.7c0,2-1.5,4-4.2,4.4v2.7H1274.1z"/>
	<path class="st1" d="M1222.5,554.8v-1.4c-0.8,0-1.5-0.2-2.2-0.6l0.3-0.9c0.6,0.4,1.3,0.6,2.1,0.6c1,0,1.7-0.6,1.7-1.4
		c0-0.8-0.6-1.2-1.6-1.7c-1.5-0.6-2.4-1.2-2.4-2.4c0-1.2,1-2.1,2.2-2.2v-1.4h0.9v1.3c0.7,0,1.3,0.2,1.9,0.5l-0.4,0.9
		c-0.5-0.3-1.2-0.5-1.8-0.5c-1.1,0-1.5,0.6-1.5,1.2c0,0.7,0.5,1.1,1.8,1.6c1.5,0.6,2.2,1.3,2.2,2.5c0,1.2-1,2.2-2.3,2.4v1.4
		L1222.5,554.8z"/>
	<path class="st1" d="M1271.7,624.8v-1.4c-0.8,0-1.5-0.2-2.2-0.6l0.3-0.9c0.6,0.4,1.3,0.6,2.1,0.6c1,0,1.7-0.6,1.7-1.4
		c0-0.8-0.6-1.2-1.6-1.7c-1.5-0.6-2.4-1.2-2.4-2.4c0-1.2,0.9-2.1,2.2-2.2v-1.4h0.9v1.3c0.7,0,1.3,0.2,1.9,0.5l-0.4,0.9
		c-0.5-0.3-1.2-0.5-1.8-0.5c-1.1,0-1.5,0.6-1.5,1.2c0,0.7,0.5,1.1,1.8,1.6c1.5,0.6,2.2,1.3,2.2,2.5c0,1.2-1,2.2-2.3,2.4v1.4
		L1271.7,624.8z"/>
</g>
</svg>
